<?xml version="1.0" encoding="UTF-8"?>
<svg xmlns="http://www.w3.org/2000/svg" xmlns:xlink="http://www.w3.org/1999/xlink" width="1200px" height="675px" viewBox="0 0 1200 675" version="1.1">
<g id="surface1">
<rect x="0" y="0" width="1200" height="675" style="fill:rgb(100%,100%,100%);fill-opacity:1;stroke:none;"/>
<path style=" stroke:none;fill-rule:nonzero;fill:rgb(9.019608%,11.764706%,16.862745%);fill-opacity:1;" d="M 1200 506.25 C 1156.84375 434.21875 1113.6875 362.21875 1060.6875 336.34375 C 1007.65625 310.46875 944.78125 330.78125 883.78125 316.21875 C 822.78125 301.65625 763.65625 252.25 732.28125 193.71875 C 700.9375 135.21875 697.34375 67.625 693.75 0 L 1200 0 Z M 1200 506.25 "/>
<path style=" stroke:none;fill-rule:nonzero;fill:rgb(9.019608%,11.764706%,16.862745%);fill-opacity:1;" d="M 0 168.75 C 48.21875 214.34375 96.46875 259.96875 165.28125 276 C 234.0625 292.03125 323.4375 278.53125 357.96875 317.03125 C 392.5 355.53125 372.15625 446.0625 387.75 514.40625 C 403.3125 582.71875 454.78125 628.875 506.25 675 L 0 675 Z M 0 168.75 "/>
</g>
</svg>
