<svg id="visual" viewBox="0 0 3840 2160" width="3840" height="2160" xmlns="http://www.w3.org/2000/svg" xmlns:xlink="http://www.w3.org/1999/xlink" version="1.1"><rect x="0" y="0" width="3840" height="2160" fill="#fff"></rect><defs><linearGradient id="grad1_0" x1="43.8%" y1="0%" x2="100%" y2="100%"><stop offset="14.444444444444446%" stop-color="#ffffff" stop-opacity="1"></stop><stop offset="85.55555555555554%" stop-color="#ffffff" stop-opacity="1"></stop></linearGradient></defs><defs><linearGradient id="grad2_0" x1="0%" y1="0%" x2="56.3%" y2="100%"><stop offset="14.444444444444446%" stop-color="#ffffff" stop-opacity="1"></stop><stop offset="85.55555555555554%" stop-color="#ffffff" stop-opacity="1"></stop></linearGradient></defs><g transform="translate(3840, 0)"><path d="M0 1620C-138.1 1389.5 -276.2 1159.1 -445.8 1076.3C-615.5 993.5 -816.7 1058.5 -1011.9 1011.9C-1207.1 965.3 -1396.3 807.2 -1496.7 619.9C-1597 432.7 -1608.5 216.4 -1620 0L0 0Z" fill="#171E2B"></path></g><g transform="translate(0, 2160)"><path d="M0 -1620C154.3 -1474.1 308.7 -1328.1 528.9 -1276.8C749 -1225.5 1035 -1268.7 1145.5 -1145.5C1256 -1022.3 1190.9 -732.6 1240.8 -513.9C1290.6 -295.3 1455.3 -147.6 1620 0L0 0Z" fill="#171E2B"></path></g></svg>