<?xml version="1.0" encoding="UTF-8"?>
<svg xmlns="http://www.w3.org/2000/svg" xmlns:xlink="http://www.w3.org/1999/xlink" width="1778px" height="1000px" viewBox="0 0 1777 1000" version="1.1">
<g id="surface1">
<rect x="0" y="0" width="1777" height="1000" style="fill:rgb(100%,100%,100%);fill-opacity:1;stroke:none;"/>
<path style=" stroke:none;fill-rule:nonzero;fill:rgb(9.019608%,11.764706%,16.862745%);fill-opacity:1;" d="M 1777 750 C 1713.09375 643.285156 1649.1875 536.621094 1570.703125 498.285156 C 1492.171875 459.953125 1399.0625 490.046875 1308.734375 468.472656 C 1218.402344 446.898438 1130.847656 373.703125 1084.386719 286.992188 C 1037.972656 200.324219 1032.648438 100.183594 1027.328125 0 L 1777 0 Z M 1777 750 "/>
<path style=" stroke:none;fill-rule:nonzero;fill:rgb(9.019608%,11.764706%,16.862745%);fill-opacity:1;" d="M 0 250 C 71.402344 317.546875 142.855469 385.140625 244.753906 408.890625 C 346.609375 432.640625 478.957031 412.640625 530.09375 469.675781 C 581.226562 526.714844 551.101562 660.832031 574.191406 762.082031 C 597.238281 863.285156 673.457031 931.667969 749.671875 1000 L 0 1000 Z M 0 250 "/>
</g>
</svg>
