<svg width="366" height="245" viewBox="0 0 366 245" version="1.1" xmlns="http://www.w3.org/2000/svg" xmlns:xlink="http://www.w3.org/1999/xlink"><title>Group 20</title><defs><path d="M15.635 0c8.634 0 15.634 7 15.634 15.635v40.333H0V15.635C0 7 7 0 15.635 0z" id="a"/><rect id="c" x=".074" y="0" width="72.507" height="69.176" rx="34.588"/><ellipse id="e" cx="27.853" cy="27.847" rx="27.853" ry="27.847"/><path d="M6.271 8.506L18.016 0l11.596 8.503a15.168 15.168 0 0 1 6.2 12.232v39.38H0V20.79c0-4.864 2.332-9.432 6.271-12.285z" id="g"/><path d="M.828 3.621l3.65-1.66L8.348.204a1.413 1.413 0 0 1 1.997 1.286v4.156a5.172 5.172 0 0 1-5.173 5.172h-3.76C.633 10.817 0 10.185 0 9.405V4.907c0-.554.324-1.056.828-1.286z" id="i"/><path d="M26.417-19.276a7.063 7.063 0 0 1 7.042 7.054l.049 38.828a7.005 7.005 0 0 1-7.025 7.014 7.063 7.063 0 0 1-7.043-7.053l-.049-38.829a7.005 7.005 0 0 1 7.026-7.014z" id="k"/><path d="M24.598.075h3.037C41.175.075 52.15 11.05 52.15 24.59c0 2.772-.47 5.523-1.39 8.137l-14.56 41.38h-21.12L1.31 32.254C-2.922 19.391 4.075 5.534 16.936 1.303A24.516 24.516 0 0 1 24.598.075z" id="l"/><path d="M12.165 0h20.92a9.09 9.09 0 0 1 8.781 6.737l3.896 14.533a8.476 8.476 0 0 1-8.187 10.67H8.54A8.476 8.476 0 0 1 .244 21.735l3.022-14.5A9.09 9.09 0 0 1 12.166 0z" id="n"/><path d="M47.855 0h1.39c26.429 0 47.854 21.425 47.854 47.855V85.82c0 5.462-4.427 9.889-9.888 9.889H9.888C4.428 95.71 0 91.283 0 85.82V47.855C0 21.425 21.425 0 47.855 0z" id="o"/><rect id="q" x="7.994" y="0" width="45.611" height="32.217" rx="16.108"/><path d="M21.4 0h.695c11.819 0 21.4 9.58 21.4 21.4v11.817a9.582 9.582 0 0 1-9.583 9.582H9.582A9.582 9.582 0 0 1 0 33.217V21.399C0 9.581 9.58 0 21.4 0z" id="s"/><path d="M6.348 3.292H.518c-.286 0-.518.164-.518.366v.091c0 2.475 2.842 4.482 6.348 4.482h5.83c.286 0 .518-.164.518-.366v-.092c0-2.475-2.842-4.48-6.348-4.48z" id="u"/><path d="M6.348 0H.518C.232 0 0 .164 0 .366v.091c0 2.475 2.842 4.481 6.348 4.481h5.83c.286 0 .518-.163.518-.365V4.48C12.696 2.006 9.854 0 6.348 0z" id="w"/><path d="M10.58 0c5.843 0 10.58 4.737 10.58 10.58v22.67a2.33 2.33 0 0 1-1.85 2.28L2.812 39.014A2.33 2.33 0 0 1 0 36.733V10.58C0 4.737 4.737 0 10.58 0z" id="y"/><path id="A" d="M.09 0h31.092v15.238H.09z"/></defs><g stroke="none" stroke-width="1" fill="none" fill-rule="evenodd"><g><g transform="translate(3 -2)"><g transform="translate(226.97 41.304)"><path fill="#434343" d="M46.84 111.701H28.031v76.662h18.81z"/><ellipse fill="#FFB5A1" cx="18.157" cy="28.925" rx="5.172" ry="5.173"/><path d="M56.714 34.098a5.173 5.173 0 1 1 .002-10.346 5.173 5.173 0 0 1-.002 10.346z" fill="#FFB5A1"/><g transform="translate(21.683 9.877)"><mask id="b" fill="#fff"><use xlink:href="#a"/></mask><use fill="#FFB5A1" xlink:href="#a"/><path d="M-11.285 7.525h11.05v2.814a6.357 6.357 0 0 1-6.357 6.357h-4.693v-9.17z" fill="#A56644" mask="url(#b)"/><path fill="#000" opacity=".096" mask="url(#b)" d="M-2.586 31.511H32.68V60.2H-2.586z"/><path d="M-.015 14.024l4.698 21.332a.706.706 0 0 1-.69.858H-.704a.706.706 0 0 1-.707-.706V14.176a.706.706 0 0 1 1.396-.152z" fill="#A56644" mask="url(#b)"/><path d="M27.963 14.024l4.698 21.332a.706.706 0 0 1-.69.858h-4.698a.706.706 0 0 1-.706-.706V14.176a.706.706 0 0 1 1.396-.152z" fill="#A56644" mask="url(#b)" transform="matrix(-1 0 0 1 59.247 0)"/></g><path d="M37.436 19.283c.666 0 1.22.51 1.276 1.175l1.317 15.76a2.602 2.602 0 0 1-2.593 2.818 2.602 2.602 0 0 1-2.594-2.818l1.317-15.76a1.281 1.281 0 0 1 1.277-1.175z" fill="#E47A65"/><g fill="#A56644"><path d="M35.08 41.27l-3.868 2.234a2.586 2.586 0 1 0 2.586 4.48l3.868-2.233a2.586 2.586 0 1 0-2.586-4.48z"/><path d="M39.91 41.27l3.869 2.234a2.586 2.586 0 1 1-2.586 4.48l-3.869-2.233a2.586 2.586 0 1 1 2.586-4.48z"/></g><path d="M34.038 74.68l10.23 12.284a9.888 9.888 0 0 1-.605 13.32l-11.376 11.378a9.889 9.889 0 0 1-14.32-.352l-9.894-10.917a9.888 9.888 0 0 1-.147-13.115l11.04-12.744a9.888 9.888 0 0 1 15.073.146z" fill="#D8D8D8"/><path d="M40.705 74.412L25.592 92.558a9.888 9.888 0 0 0 .606 13.32L42.8 122.483c3.86 3.862 10.122 3.862 13.984.001.115-.115.227-.233.336-.353l14.629-16.144a9.888 9.888 0 0 0 .146-13.114L55.777 74.266c-3.575-4.128-9.82-4.576-13.948-1-.406.35-.781.734-1.124 1.146z" fill="#D8D8D8"/><path d="M23.571 71.959H51.3a4.944 4.944 0 0 1 4.944 4.944v76.888c0 1.17-.948 2.12-2.119 2.12H20.746a2.119 2.119 0 0 1-2.119-2.12V76.903a4.944 4.944 0 0 1 4.944-4.944z" fill="#D8D8D8"/><g transform="translate(26.856 17.872)"><rect fill="#FFF" x="0" y="0" width="8.464" height="12.699" rx="4.232"/><rect fill="#FFF" x="12.696" y="0" width="8.229" height="12.699" rx="4.114"/><rect fill="#4B4B4B" transform="matrix(-1 0 0 1 10.11 0)" x="3.056" y="2.822" width="3.997" height="7.055" rx="1.998"/><rect fill="#4B4B4B" transform="matrix(-1 0 0 1 32.68 0)" x="14.342" y="2.822" width="3.997" height="7.055" rx="1.998"/></g><path fill="#FFB5A1" d="M24.975 17.167h24.921v8.23H24.975z"/><g fill="#FFF" fill-opacity=".378" stroke="#87633F" stroke-width="1.884"><path d="M25.215 20.458h6.338a4.238 4.238 0 0 1 4.238 4.238v8.693a4.238 4.238 0 0 1-4.238 4.238h-6.338a4.238 4.238 0 0 1-4.238-4.238v-8.693a4.238 4.238 0 0 1 4.238-4.238zM43.318 20.458h6.339a4.238 4.238 0 0 1 4.237 4.238v8.693a4.238 4.238 0 0 1-4.237 4.238h-6.339a4.238 4.238 0 0 1-4.238-4.238v-8.693a4.238 4.238 0 0 1 4.238-4.238z"/></g><path d="M42.608 38.566a2.822 2.822 0 0 1-2.822 2.822h-4.7a2.822 2.822 0 0 1 0-5.644h4.7a2.822 2.822 0 0 1 2.822 2.822z" fill="#E47A65"/><ellipse fill="#FFF" cx="37.318" cy="90.183" rx="3.879" ry="3.88"/><ellipse fill="#FFF" cx="37.318" cy="112.994" rx="3.879" ry="3.88"/><g transform="translate(30.147)"><path d="M.235 9.877h15.797c4.202.627 6.303 2.822 6.303 6.584" stroke="#3285BD" stroke-width="5.825" stroke-linecap="round" stroke-linejoin="round"/><ellipse fill="#3285BD" cx="21.63" cy="3.292" rx="3.056" ry="3.057"/><path fill="#3285BD" d="M0 12.699l21.793 6.584.542-6.82-7.301-3.527z"/></g><g fill="#3285BD"><path d="M21.72 60.93l21.994 3.81 9.155-3.34a1.639 1.639 0 0 1 2.2 1.54v7.615c0 .905-.734 1.639-1.639 1.639H21.441a1.639 1.639 0 0 1-1.638-1.639v-8.01a1.639 1.639 0 0 1 1.918-1.614z"/><path d="M42.284 69.527c-.488.355-.821 4.01.965 6.472 1.786 2.462 5.437 3.213 5.847 2.915.409-.299.82-4.012-.966-6.473-1.786-2.462-5.358-3.27-5.846-2.914z"/><path d="M36.693 80.141c-.488-.355-.82-4.01.965-6.472 1.787-2.462 5.437-3.213 5.847-2.914.41.298.82 4.01-.966 6.472-1.786 2.462-5.358 3.27-5.846 2.914z"/></g></g><g transform="translate(59.346 41.304)"><g><g><g fill="#C6775C"><path d="M62.788 103.738a7.625 7.625 0 0 0-4.04 9.999l15.806 37.227a7.627 7.627 0 0 0 10 4.04 7.625 7.625 0 0 0 4.04-9.997v-.001l-15.806-37.228a7.627 7.627 0 0 0-10-4.04z"/><path d="M75.473 140.51l-5.395 5.206a4.871 4.871 0 0 0-.121 6.889l5.211 5.392a4.871 4.871 0 0 0 6.888.12l5.395-5.206a4.871 4.871 0 0 0 .12-6.89l-5.21-5.39a4.871 4.871 0 0 0-6.888-.12z"/></g><path d="M54.364 92.702l-1.53.811c-5.075 2.698-7.002 9-4.304 14.075v.002l16.696 31.382c2.698 5.074 8.999 7 14.073 4.303l1.531-.81c5.076-2.697 7.003-8.999 4.305-14.074l-.001-.002-16.695-31.382c-2.699-5.074-9-7-14.074-4.303z" fill="#D83867"/></g></g><rect fill="#1C5D88" x="27.397" y="130.868" width="18.569" height="64.198" rx="1.107"/><g transform="translate(.133 79.342)"><mask id="d" fill="#fff"><use xlink:href="#c"/></mask><use fill="#D83867" xlink:href="#c"/><path stroke="#979797" stroke-width=".6" fill="#1C5D88" mask="url(#d)" d="M-5.89 50.911h83.402v23.711H-5.89z"/><path fill="#D78254" mask="url(#d)" d="M-5.969 45.97h84.002v7.735H-5.969z"/><path fill="#1C5D88" mask="url(#d)" d="M16.885 45.97h3.979v8.177h-3.979zM54.601 45.97h3.979v8.177h-3.979z"/><rect fill="#DBDADA" mask="url(#d)" x="30.285" y="45.97" width="13.042" height="7.735" rx=".443"/><g mask="url(#d)" stroke="#C52F5B" stroke-linecap="round" stroke-linejoin="round" stroke-width="3.313"><g><path d="M19.453 17.46l3.723 3.734 3.723-3.734M19.453 26.966l3.723 3.735 3.723-3.735M45.822 17.46l3.723 3.734 3.723-3.734M45.822 26.966l3.723 3.735 3.723-3.735M33.05 17.46l3.723 3.734 3.722-3.734M33.05 26.966l3.723 3.735 3.722-3.735"/></g></g></g><rect fill="#3D3D3D" x="19.984" y="192.595" width="34.326" height="7.055" rx="3.527"/><g transform="translate(8.828)"><mask id="f" fill="#fff"><use xlink:href="#e"/></mask><use fill="#1C5D88" xlink:href="#e"/><path d="M22.106 27.626L48.19 8.177" stroke-opacity=".209" stroke="#000" stroke-width="2.879" stroke-linecap="square" mask="url(#f)"/></g><g transform="translate(18.776 21.438)"><mask id="h" fill="#fff"><use xlink:href="#g"/></mask><use fill="#C6775C" xlink:href="#g"/><g mask="url(#h)"><g transform="translate(5.969 10.387)"><rect fill="#FFF" x="13.042" y="0" width="9.948" height="13.924" rx="4.974"/><rect fill="#FFF" transform="matrix(-1 0 0 1 9.948 0)" x="0" y="0" width="9.948" height="13.924" rx="4.974"/><rect fill="#4B4B4B" transform="matrix(-1 0 0 1 11.716 0)" x="3.758" y="3.536" width="4.2" height="6.851" rx="2.1"/><rect fill="#4B4B4B" transform="matrix(-1 0 0 1 34.116 0)" x="14.958" y="3.757" width="4.2" height="6.851" rx="2.1"/></g></g><path d="M4.774 24.09c4.28.85 7.558 2.25 9.836 4.2" stroke="#C6775C" stroke-width="6.422" mask="url(#h)" transform="rotate(-2 9.692 26.19)"/><path d="M20.248 24.09c4.28.85 7.558 2.25 9.836 4.2" stroke="#C6775C" stroke-width="6.422" mask="url(#h)" transform="scale(-1 1) rotate(-2 0 1467.96)"/></g><path d="M23.26 48.9h25.868c6.714 0 12.156 5.443 12.156 12.156 0 6.714-5.442 12.156-12.156 12.156H23.26c-6.713 0-12.155-5.442-12.155-12.156 0-6.713 5.442-12.155 12.155-12.155z" fill="#3D3D3D"/><path d="M31.461 50.328a4.424 4.424 0 0 0-7.315 4.976c2.694 3.959 6.61 5.871 11.154 5.394a4.423 4.423 0 1 0-.924-8.798c-1.246.131-2.028-.268-2.915-1.572z" stroke="#3D3D3D" stroke-width="2.879" fill="#FFF" fill-rule="nonzero"/><rect fill="#C6775C" x="31.863" y="45.998" width="8.621" height="5.083" rx="2.542"/><rect fill="#D83867" x="16.255" y="79.784" width="40.896" height="5.083" rx="1.771"/></g><path d="M145.29 161.163c-4.354-1.087-7.74-4.833-8.154-9.553-.413-4.72 2.273-8.996 6.371-10.823l1.783 20.376z" stroke="#A56644" stroke-width="2.825" fill="#A56644" stroke-linecap="round" stroke-linejoin="round"/><g><path d="M172.295 6.836h21.073c11.747 0 21.697 8.66 23.318 20.295l23.996 172.215c1.795 12.879-7.19 24.774-20.07 26.568-1.076.15-2.161.225-3.248.225h-69.065c-13.003 0-23.544-10.54-23.544-23.544 0-1.086.075-2.172.225-3.249l23.996-172.215c1.622-11.635 11.572-20.295 23.32-20.295z" fill="#A56644"/><path d="M226.903 96.709h-90.22a4.578 4.578 0 0 0-4.518 3.844l-2.548 15.674a4.578 4.578 0 0 0 4.519 5.313H229.3a4.578 4.578 0 0 0 4.525-5.27l-2.398-15.675a4.578 4.578 0 0 0-4.525-3.886z" fill="#FF4B4B"/><path d="M147.315 96.623l-3.13 88.403a4.578 4.578 0 0 0 3.684 4.653l15.586 3.094a4.578 4.578 0 0 0 5.467-4.325l3.326-91.697a4.578 4.578 0 0 0-4.633-4.743l-15.783.199a4.578 4.578 0 0 0-4.517 4.416z" fill="#FF4B4B"/><path d="M222.533 197.92a2.469 2.469 0 0 1 2.47 2.469v18.696h-4.938v-18.696a2.469 2.469 0 0 1 2.468-2.469zM143.302 197.92a2.469 2.469 0 0 1 2.469 2.469v18.696h-4.937v-18.696a2.469 2.469 0 0 1 2.468-2.469z" fill="#975D3C"/></g><rect fill="#D8D8D8" x="5.882" y="240.955" width="341.846" height="5.879" rx="2.939"/><rect fill="#FFF" x="183.623" y="22.357" width="9.639" height="14.815" rx="4.82"/><rect fill="#FFF" transform="matrix(-1 0 0 1 353.845 0)" x="172.103" y="22.357" width="9.639" height="14.815" rx="4.82"/><rect fill="#4B4B4B" transform="matrix(-1 0 0 1 355.256 0)" x="175.63" y="26.354" width="3.997" height="7.76" rx="1.998"/><rect fill="#4B4B4B" transform="matrix(-1 0 0 1 375.005 0)" x="185.504" y="26.59" width="3.997" height="7.29" rx="1.998"/><path d="M181.872 40.464h2.327a8.358 8.358 0 0 1 8.358 8.358v24.202a8.358 8.358 0 0 1-8.358 8.358h-2.327a8.358 8.358 0 0 1-8.358-8.358V48.822a8.358 8.358 0 0 1 8.358-8.358z" fill="#E5A259"/><path d="M181.743 40.464h2.585a3.527 3.527 0 0 1 0 7.055h-2.585a3.527 3.527 0 1 1 0-7.055z" fill="#4B4B4B"/><path fill="#A56644" d="M168.106 19.535h14.812v11.052h-14.812z"/><path fill="#A56644" d="M182.213 16.713h14.812v7.76h-14.812zM144.751 3.53a5.054 5.054 0 0 1 7.138.373h.001l1.416 1.574a5.056 5.056 0 0 1-.374 7.14 5.054 5.054 0 0 1-7.138-.373v-.001l-1.417-1.573a5.056 5.056 0 0 1 .374-7.14z"/><g transform="translate(.395 61.763)"><g transform="translate(1.948 53.851)" fill="#3D3D3D"><rect x="0" y="0" width="18.103" height="56.203" rx="9.052"/><rect x="11.99" y="11.523" width="18.103" height="54.557" rx="9.052"/><rect x="49.137" y="11.523" width="15.987" height="54.557" rx="7.994"/></g><rect fill="#3D3D3D" x="62.135" y="51.5" width="12.461" height="39.507" rx="6.23"/><path d="M32.159 0C48.844 0 62.37 13.526 62.37 30.211v49.867c0 16.686-13.526 30.212-30.211 30.212S1.948 96.764 1.948 80.078V30.211C1.948 13.526 15.474 0 32.158 0z" fill="#3D3D3D"/><rect fill="#3D3D3D" x="41.681" y="27.043" width="36.442" height="84.657" rx="18.221"/><path d="M34.747 79.954H47.91c5.65 0 10.23 4.58 10.23 10.23v3.872a6.357 6.357 0 0 1-6.358 6.357H30.875a6.357 6.357 0 0 1-6.357-6.357v-3.873c0-5.65 4.58-10.229 10.23-10.229z" fill="#FFB100"/><rect fill="#FFB100" x="23.813" y="23.046" width="35.501" height="42.093" rx="17.069"/><path d="M41.563 31.746c9.804 0 17.75 7.948 17.75 17.751v13.985a9.182 9.182 0 0 1-9.181 9.182H32.995a9.182 9.182 0 0 1-9.182-9.182V49.497c0-9.803 7.947-17.75 17.75-17.75z" fill="#A56644"/><g transform="matrix(-1 0 0 1 38.624 57.614)"><mask id="j" fill="#fff"><use xlink:href="#i"/></mask><use fill="#932626" xlink:href="#i"/><ellipse fill="#FF4B4B" mask="url(#j)" cx="-.353" cy="10.7" rx="3.879" ry="3.88"/><rect fill="#FFF" mask="url(#j)" x="-3.527" y="-2.116" width="12.226" height="6.584" rx="2.354"/></g><rect fill="#FFF" x="43.327" y="41.153" width="10.58" height="14.815" rx="5.29"/><rect fill="#FFF" transform="matrix(-1 0 0 1 69.49 0)" x="29.455" y="41.153" width="10.58" height="14.815" rx="5.29"/><path d="M39.655 79.916a7.912 7.912 0 0 0 1.744 11.03l15.566 11.362a7.849 7.849 0 0 0 10.986-1.738 7.912 7.912 0 0 0-1.745-11.029L50.64 78.179a7.849 7.849 0 0 0-10.985 1.737z" fill="#FFB100"/><path d="M43.33 79.021a7.912 7.912 0 0 1-.581 11.152l-13.247 11.982a7.848 7.848 0 0 1-11.106-.579 7.912 7.912 0 0 1 .58-11.15l13.247-11.983a7.848 7.848 0 0 1 11.107.578z" fill="#FFB100"/><rect fill="#4B4B4B" transform="matrix(-1 0 0 1 71.371 0)" x="33.452" y="44.915" width="4.467" height="7.29" rx="2.234"/><rect fill="#4B4B4B" transform="matrix(-1 0 0 1 95.352 0)" x="45.442" y="44.915" width="4.467" height="7.29" rx="2.234"/><path d="M41.68 47.737c.776 0 1.422.596 1.485 1.369l.62 7.638a2.11 2.11 0 0 1-2.104 2.28 2.11 2.11 0 0 1-2.104-2.28l.62-7.638a1.489 1.489 0 0 1 1.484-1.369z" fill="#8D4D2B"/><rect fill="#8D4D2B" x="38.859" y="53.851" width="5.643" height="5.644" rx="2.821"/><rect fill="#3D3D3D" x="26.164" y="15.05" width="10.11" height="25.162" rx="5.055"/><path fill="#A56644" d="M36.508 71.253h9.64v8.466h-9.64z"/><path d="M2.049 34.691c2.802-9.871 6.917-17 12.343-21.383" stroke="#3D3D3D" stroke-width="10.83" stroke-linecap="round" stroke-linejoin="round"/><rect fill="#A56644" x="57.198" y="45.621" width="6.818" height="10.347" rx="3.409"/><rect fill="#A56644" x="18.875" y="45.621" width="6.818" height="10.347" rx="3.409"/><path d="M32.748 72.664h17.865c.65 0 1.177.527 1.177 1.177v9.64c0 .65-.527 1.176-1.177 1.176H32.748c-.65 0-1.177-.527-1.177-1.177v-9.639c0-.65.527-1.177 1.177-1.177z" fill="#FFB100"/><g transform="matrix(-1 0 0 1 75.301 102.294)"><rect fill="#FF4B4B" x="0" y="72.194" width="21.63" height="4.703" rx="2.352"/><path d="M13.392 62.082h7.703a1.413 1.413 0 0 1 1.388 1.68l-1.808 9.402a1.413 1.413 0 0 1-1.388 1.146h-7.702a1.413 1.413 0 0 1-1.388-1.68l1.808-9.402a1.413 1.413 0 0 1 1.387-1.146z" fill="#FF4B4B"/><rect fill="#FF4B4B" x="31.269" y="72.194" width="18.103" height="4.703" rx="2.352"/><path d="M34.535 62.317h7.754a1.413 1.413 0 0 1 1.413 1.44l-.18 9.168a1.413 1.413 0 0 1-1.412 1.385h-7.754a1.413 1.413 0 0 1-1.413-1.44l.18-9.168a1.413 1.413 0 0 1 1.412-1.385z" fill="#FF4B4B"/><path d="M45.633 0H31.87l-2.01 58.69a2.825 2.825 0 0 0 2.824 2.922h10.337a2.825 2.825 0 0 0 2.825-2.836L45.633 0z" fill="#1CB0F6"/><path d="M21.664 0h13.837l-9.924 59.253a2.825 2.825 0 0 1-2.786 2.359H12.465a2.825 2.825 0 0 1-2.767-3.394L21.664 0z" fill="#1CB0F6"/><rect fill="#42C2FF" transform="matrix(-1 0 0 1 78.526 0)" x="29.153" y="53.851" width="20.219" height="10.347" rx="2.354"/><rect fill="#42C2FF" transform="matrix(-1 0 0 1 35.266 0)" x="7.523" y="53.851" width="20.219" height="10.347" rx="2.354"/></g><path d="M29.926 103.705H54.41c.332 0 .619.231.69.555l.67 3.055a.706.706 0 0 1-.69.858H29.927a.706.706 0 0 1-.706-.706v-3.056c0-.39.316-.706.706-.706z" fill="#3D3D3D" opacity=".742"/><path d="M56.432 86.16l2.32 2.32a4.238 4.238 0 0 1 0 5.993l-2.319 2.322a4.238 4.238 0 0 1-5.994 0l-2.318-2.322a4.238 4.238 0 0 1 0-5.992l2.318-2.322a4.238 4.238 0 0 1 5.993 0h.001zM21.25 86.096l4.035-4.896a2.119 2.119 0 0 1 2.446-.61l1.764.73a7.89 7.89 0 0 1 4.398 4.601l1.07 2.95a2.119 2.119 0 0 1-1.993 2.841h-6.836c-.416 0-.822-.122-1.17-.352l-3.249-2.15a2.119 2.119 0 0 1-.466-3.114z" fill="#A56644"/><g transform="translate(16.76 89.948)"><mask fill="#fff"><use xlink:href="#k"/></mask><use fill="#FFB100" transform="rotate(90 26.45 7.172)" xlink:href="#k"/></g><path d="M29.22 54.322c3.762.927 6.426 2.103 7.994 3.527" stroke="#A56644" stroke-width="3.532"/><rect fill="#A56644" x="22.167" y="80.424" width="6.583" height="3.763" rx="1.881"/></g><path d="M221.557 3.53a5.054 5.054 0 0 0-7.138.373l-1.417 1.574a5.056 5.056 0 0 0 .374 7.14 5.054 5.054 0 0 0 7.138-.373l.001-.001 1.416-1.573a5.056 5.056 0 0 0-.374-7.14z" fill="#A56644"/><path d="M176.452 62.804a2.704 2.704 0 0 1 2.704 2.704v2.705h-5.407v-2.705a2.704 2.704 0 0 1 2.703-2.704z" fill="#FFF"/><g fill="#BB7149" stroke="#BB7149" stroke-linecap="round" stroke-linejoin="round" stroke-width="3.673"><path d="M178.144 157.697c-2.568-5.267-1.666-11.798 2.707-16.17 4.373-4.374 10.904-5.276 16.17-2.708l-18.877 18.878z"/><path d="M187.221 157.697c2.568-5.267 1.666-11.798-2.707-16.17-4.373-4.374-10.904-5.276-16.17-2.708l18.877 18.878z"/><path d="M182.637 153.394c-.26-2.986-2.435-5.66-5.606-6.51-3.172-.85-6.391.38-8.11 2.834l13.716 3.676zM183.062 153.394c.26-2.986 2.434-5.66 5.606-6.51 3.172-.85 6.391.38 8.11 2.834l-13.716 3.676z"/></g><g transform="translate(150.68 216.13)" fill="#A56644"><rect x="30.718" y=".648" width="33.986" height="24.177" rx="2.825"/><rect x="0" y=".648" width="45.75" height="24.177" rx="2.825"/></g><g transform="translate(269.136 77.754)"><g><path d="M70.644 54.263l.974-.336a7.31 7.31 0 0 1 9.293 4.532l.334.976a7.31 7.31 0 0 1-4.532 9.292l-.973.337a7.31 7.31 0 0 1-9.293-4.532l-.334-.977a7.31 7.31 0 0 1 4.531-9.291z" fill="#4B4B4B"/><path d="M73.908 64.206L63.861 57.17a6.346 6.346 0 0 0-7.279 10.396l10.048 7.037a6.345 6.345 0 0 0 8.837-1.559 6.346 6.346 0 0 0-1.559-8.838z" fill="#4B4B4B"/><path d="M64.613 67.213l3.967-9.347a6.345 6.345 0 0 1 11.68 4.959l-3.966 9.347a6.344 6.344 0 0 1-8.32 3.361 6.345 6.345 0 0 1-3.36-8.32z" fill="#4B4B4B"/><path d="M69.856 57.503l4.297-10.125a5.117 5.117 0 0 1 6.769-2.685 5.248 5.248 0 0 1 2.72 6.855l-4.298 10.125a5.117 5.117 0 0 1-6.769 2.685 5.248 5.248 0 0 1-2.72-6.855z" fill="#DB8E73"/></g><g><path d="M11.083 101.452l7.344-25.616a6.346 6.346 0 0 1 12.198 3.498l-7.343 25.617a2.543 2.543 0 0 1-3.146 1.743l-7.31-2.097a2.543 2.543 0 0 1-1.743-3.145z" fill="#DB8E73"/><g fill="#DB8E73"><path d="M10.542 102.02l-2.854 3.654a4.874 4.874 0 0 0 .84 6.84l3.652 2.856a4.874 4.874 0 0 0 6.841-.84l2.853-3.654a4.874 4.874 0 0 0-.84-6.84l-3.652-2.856a4.874 4.874 0 0 0-6.841.84z"/></g><path d="M14.89 88.338l7.344-25.616a6.344 6.344 0 0 1 7.847-4.35 6.346 6.346 0 0 1 4.35 7.848l-7.343 25.616a2.543 2.543 0 0 1-3.145 1.744l-7.31-2.097a2.543 2.543 0 0 1-1.743-3.145z" fill="#4B4B4B"/></g><path d="M18.052 82.032l6.256 1.913a3.814 3.814 0 0 1 2.533 4.762l-.676 2.213a3.814 3.814 0 0 1-4.763 2.532l-6.256-1.913a3.814 3.814 0 0 1-2.532-4.763l.676-2.212a3.814 3.814 0 0 1 4.762-2.533z" fill="#4B4B4B"/><g transform="translate(16.862 82.706)"><mask id="m" fill="#fff"><use xlink:href="#l"/></mask><use fill="#FFBEBE" xlink:href="#l"/><path fill="#DB8E73" mask="url(#m)" d="M7.759 66.785H43.26v16.461H7.759z"/></g><rect fill="#4B4B4B" x="24.688" y="156.74" width="35.319" height="6.346" rx="3.173"/><g transform="translate(19.823 55.631)"><mask fill="#fff"><use xlink:href="#n"/></mask><use fill="#4B4B4B" xlink:href="#n"/></g><rect fill="#FFBEBE" x="21.936" y="0" width="40.607" height="76.662" rx="20.303"/><path d="M31.455 40.19c7.031 10.294 16.892 13.953 29.581 10.977" stroke="#F2A9A9" stroke-width="2.967" stroke-linecap="round" stroke-linejoin="round"/><g transform="translate(27.053 6.874)"><rect fill="#DB8E73" x="0" y="0" width="30.484" height="40.417" rx="15.242"/><g transform="translate(3.163 8.66)"><rect fill="#FFF" x="13.804" y="0" width="10.353" height="14.435" rx="5.176"/><rect fill="#FFF" transform="matrix(-1 0 0 1 10.353 0)" x="0" y="0" width="10.353" height="14.435" rx="5.176"/><rect fill="#4B4B4B" transform="matrix(-1 0 0 1 12.193 0)" x="3.911" y="3.666" width="4.371" height="7.103" rx="2.186"/><rect fill="#4B4B4B" transform="matrix(-1 0 0 1 35.66 0)" x="15.644" y="3.666" width="4.371" height="7.103" rx="2.186"/></g><path d="M16.024 17.288l.608 5.407a1.4 1.4 0 0 1-1.39 1.555 1.4 1.4 0 0 1-1.39-1.555l.607-5.407a.788.788 0 0 1 1.565 0z" fill="#B4654A"/><rect fill="#B4654A" x="12.654" y="20.786" width="5.176" height="4.908" rx="2.454"/><path d="M13.808 28.122c1.907-.227 3.298-.5 4.165-.817.865-.316 2.048-.982 3.539-1.997l.319-.217.283.781a4.482 4.482 0 0 1-2.675 5.738 4.461 4.461 0 0 1-5.722-2.66l-.004-.01-.28-.774.375-.044z" stroke="#FFF" stroke-width=".6" fill="#FFF" stroke-linecap="round" stroke-linejoin="round"/></g><rect fill="#F2A9A9" x="31.41" y="87.571" width="3.762" height="7.826" rx=".706"/><rect fill="#F2A9A9" x="50.078" y="87.571" width="3.762" height="7.826" rx=".706"/><g fill="#DB8E73"><path d="M81.831 44.893l.59.46a5.006 5.006 0 0 1 .862 7.022l-.005.005a4.998 4.998 0 0 1-7.02.862l-.59-.46a5.006 5.006 0 0 1-.862-7.022l.004-.005a4.998 4.998 0 0 1 7.021-.862z"/><path d="M75.19 50.427l-1.987-9.416a2.602 2.602 0 0 1 2-3.081 2.587 2.587 0 0 1 3.073 1.995l1.987 9.415a2.602 2.602 0 0 1-2.001 3.082 2.587 2.587 0 0 1-3.073-1.995z"/><path d="M76.296 43.596l6.317-7.28a2.588 2.588 0 0 1 3.654-.255 2.597 2.597 0 0 1 .256 3.66L80.206 47a2.588 2.588 0 0 1-3.654.255 2.597 2.597 0 0 1-.256-3.66z"/><path d="M80.73 43.698l8.409-4.677a2.587 2.587 0 0 1 3.521 1.01 2.602 2.602 0 0 1-1.012 3.532l-8.409 4.677a2.587 2.587 0 0 1-3.521-1.01 2.602 2.602 0 0 1 1.013-3.532z"/><path d="M79.027 46.461l9.58-.514a2.591 2.591 0 0 1 2.728 2.455 2.604 2.604 0 0 1-2.462 2.734l-9.58.514a2.591 2.591 0 0 1-2.727-2.455 2.604 2.604 0 0 1 2.46-2.734z"/></g></g><g transform="matrix(-1 0 0 1 301.731 106.914)"><g transform="translate(6.33 2.587)"><ellipse fill="#FF9600" cx="24.995" cy="26.428" rx="18.926" ry="18.93"/><g><g><g><g fill="#FF9600"><path d="M27.876 4.922L16.593 20.17l17.818-6.301-3.263-8.5a1.884 1.884 0 0 0-3.272-.446z"/><path d="M9.382 11.03l18.587 3.782-17.458 7.24-3.263-8.5a1.884 1.884 0 0 1 2.134-2.521z"/></g><path d="M22.831 12.46a1.425 1.425 0 0 1 1.841.82l.835 2.175a1.425 1.425 0 0 1-2.66 1.021l-.835-2.174a1.425 1.425 0 0 1 .82-1.841zM18.934 13.957a1.425 1.425 0 0 1 1.841.82l.835 2.174a1.425 1.425 0 0 1-2.66 1.021l-.836-2.174a1.425 1.425 0 0 1 .82-1.841z" fill="#BE7000"/><path d="M21.05 19.786l4.694-1.803a4.656 4.656 0 1 1 3.337 8.694l-4.695 1.803a4.656 4.656 0 1 1-3.337-8.694z" fill="#FFF"/><path d="M25.203 21.578l.936-1.82a1.077 1.077 0 0 0-1.344-1.498l-2.862 1.099a1.077 1.077 0 0 0 .009 2.014l1.926.72a1.077 1.077 0 0 0 1.335-.515z" fill="#FFAADE" opacity=".721"/></g></g></g></g><rect fill="#3D3D3D" x="47.474" y="125.575" width="24.451" height="8.466" rx="4.233"/><g transform="translate(10.797 30.1)"><mask id="p" fill="#fff"><use xlink:href="#o"/></mask><use fill="#2B70C9" xlink:href="#o"/><rect fill="#FFF" mask="url(#p)" x="37.167" y="40.683" width="12.461" height="15.05" rx="6.23"/><rect fill="#FFF" mask="url(#p)" x="48.687" y="40.683" width="12.461" height="15.05" rx="6.23"/><path d="M65.507-2.49h41.978a4.52 4.52 0 0 1 4.52 4.52v77.968a4.52 4.52 0 0 1-4.52 4.52H65.507a4.52 4.52 0 0 1-4.52-4.52V2.03a4.52 4.52 0 0 1 4.52-4.52zM-11.542-2.49h44.329a4.52 4.52 0 0 1 4.52 4.52v77.968a4.52 4.52 0 0 1-4.52 4.52h-44.329a4.52 4.52 0 0 1-4.52-4.52V2.03a4.52 4.52 0 0 1 4.52-4.52z" fill="#1CB0F6" mask="url(#p)"/></g><g transform="translate(28.9 22.105)"><path d="M8.789 13.485l.196 1.872a4.114 4.114 0 1 1-8.184.86l-.196-1.872a4.114 4.114 0 1 1 8.184-.86z" fill="#FF9600"/><mask id="r" fill="#fff"><use xlink:href="#q"/></mask><use fill="#4C4C4C" xlink:href="#q"/><path fill="#D2E4E8" mask="url(#r)" d="M1.411 18.342h60.187v17.872H1.411z"/></g><path d="M55.155 35.509h9.088c6.71 0 12.149 5.44 12.149 12.149V56.7c0 9.207-7.463 16.67-16.67 16.67h-.046c-9.206 0-16.67-7.463-16.67-16.67v-9.042c0-6.71 5.44-12.149 12.15-12.149z" fill="#FFC6B7"/><rect fill="#FFC6B7" x="37.129" y="50.559" width="45.376" height="27.514" rx="6.357"/><path d="M56.878 54.44l-4.467 17.612M62.52 54.44l4.468 17.612" stroke="#D25A42" stroke-width="1.695" opacity=".319" stroke-linecap="round" stroke-linejoin="round"/><path d="M57.487 67.03c.57.342 1.32.542 2.14.528a4.219 4.219 0 0 0 1.814-.427" stroke="#F19882" stroke-width="1.695" stroke-linecap="round" stroke-linejoin="round"/><path d="M59.7 44.21c1.055 0 1.961.752 2.155 1.79l1.412 7.552A3.63 3.63 0 0 1 59.7 57.85a3.63 3.63 0 0 1-3.568-4.297L57.543 46a2.194 2.194 0 0 1 2.156-1.79z" fill="#E47A65"/><path d="M51 51.5h4.467c-1.24 2.195-2.728 3.292-4.467 3.292M68.868 51.5h-4.467c1.24 2.195 2.729 3.292 4.467 3.292" stroke="#D25A42" stroke-width="1.695" opacity=".319" stroke-linecap="round" stroke-linejoin="round"/><ellipse fill="#4C4C4C" cx="60.287" cy="9.759" rx="9.757" ry="9.759"/><path d="M54.575 42.084l-1.362.109a3.108 3.108 0 0 0-2.847 3.395l.181 1.89 4.512-.36a2.488 2.488 0 0 0 2.278-2.718 2.57 2.57 0 0 0-2.762-2.316zM64.823 42.084l1.363.109a3.108 3.108 0 0 1 2.847 3.395l-.182 1.89-4.511-.36A2.488 2.488 0 0 1 62.06 44.4a2.57 2.57 0 0 1 2.762-2.316z" fill="#4C4C4C"/><g fill="#FFC6B7"><g><g><path d="M72.558 93.014l3.868 3.865a5.886 5.886 0 0 1 .001 8.324v.001l-3.87 3.865a5.886 5.886 0 0 1-8.323 0l-3.87-3.865a5.886 5.886 0 0 1 0-8.325l3.87-3.864a5.886 5.886 0 0 1 8.323 0z"/><path d="M55.556 93.014l3.869 3.865a5.886 5.886 0 0 1 0 8.325l-3.87 3.865a5.886 5.886 0 0 1-8.323 0l-3.869-3.865a5.886 5.886 0 0 1 0-8.325l3.87-3.864a5.886 5.886 0 0 1 8.322 0z"/></g></g></g><path d="M25.766 42.417l.344 3.276a4.114 4.114 0 1 1-8.184.86l-.344-3.276a4.114 4.114 0 1 1 8.184-.86z" fill="#FF9600"/></g><g transform="translate(107.735 94.45)"><rect fill="#FFC6B7" x="0" y="22.34" width="11.755" height="8.936" rx="4.468"/><path d="M28.11 0c11.842 0 21.85 8.776 23.397 20.517l4.496 34.12a1.177 1.177 0 0 1-1.167 1.33H1.845a1.177 1.177 0 0 1-1.169-1.32l4.207-34.109C6.33 8.81 16.293 0 28.11 0z" fill="#A570FF"/><rect fill="#FFC6B7" x="43.73" y="22.34" width="11.755" height="8.936" rx="4.468"/><path fill="#FFC6B7" d="M24.216 44.68h7.994v9.642h-7.994z"/><g transform="translate(6.348 3.527)"><mask id="t" fill="#fff"><use xlink:href="#s"/></mask><use fill="#FFC6B7" xlink:href="#s"/><path d="M21.747 23.28c.469 0 .862.353.912.819l.87 8.012a1.793 1.793 0 0 1-1.782 1.987 1.793 1.793 0 0 1-1.782-1.987l.87-8.012a.917.917 0 0 1 .912-.818z" fill="#EE9583" mask="url(#t)"/><g mask="url(#t)"><g><g><g><g><g><g transform="matrix(-1 0 0 1 36.207 22.105)"><path d="M.706 0h5.642a6.348 6.348 0 0 1 6.348 6.348v.707L2.859 6.043A3.185 3.185 0 0 1 0 2.874V.706C0 .316.316 0 .706 0z" fill="#A570FF"/><mask id="v" fill="#fff"><use xlink:href="#u"/></mask><use fill="#FFF" fill-rule="nonzero" xlink:href="#u"/><rect fill="#4B4B4B" mask="url(#v)" x="5.187" y=".705" width="4.937" height="6.349" rx="2.46"/></g></g></g></g></g></g></g><path d="M17.78-14.815h38.642a2.59 2.59 0 0 1 2.59 2.59v28.448a2.59 2.59 0 0 1-2.59 2.59h-21.78c-6.3 0-11.837-4.171-13.577-10.226L15.291-11.51a2.59 2.59 0 0 1 2.49-3.305z" fill="#A570FF" mask="url(#t)"/><g mask="url(#t)"><g><g><g><g><g><g transform="translate(7.288 23.046)"><mask id="x" fill="#fff"><use xlink:href="#w"/></mask><use fill="#FFF" fill-rule="nonzero" xlink:href="#w"/><rect fill="#4B4B4B" mask="url(#x)" x="5.172" y="-2.587" width="4.937" height="6.349" rx="2.46"/></g></g></g></g></g></g></g></g><path d="M20.473 58.467l-.342.167a4.144 4.144 0 0 0-2.211 2.755L3.842 119.944a2.849 2.849 0 0 0 2.77 3.515h13.11a2.849 2.849 0 0 0 2.848-2.85V59.778a1.458 1.458 0 0 0-2.097-1.31zM35.844 58.176l.063.022a4.144 4.144 0 0 1 2.682 2.972l13.764 58.79a2.849 2.849 0 0 1-2.774 3.499h-13.11a2.849 2.849 0 0 1-2.849-2.85V59.76a1.676 1.676 0 0 1 2.224-1.584z" fill="#4B4B4B"/><path fill="#A570FF" d="M22.335 87.479H34.09v53.381H22.335z"/><path fill="#FFC6B7" d="M22.335 134.041H34.09v6.82H22.335z"/><g transform="translate(17.633 52.91)"><mask id="z" fill="#fff"><use xlink:href="#y"/></mask><use fill="#4B4B4B" xlink:href="#y"/><ellipse fill="#FFC6B7" mask="url(#z)" cx="2.234" cy="-3.175" rx="13.048" ry="13.051"/></g><rect fill="#4B4B4B" x="14.577" y="140.86" width="27.272" height="5.644" rx="2.822"/><path d="M32.556 41.844c1.54-2.97 3.114-4.052 4.72-3.25" stroke="#EE9583" stroke-width="1.554" stroke-linecap="round" stroke-linejoin="round"/><path d="M17.885 5.356l.822-.414 7.598-2.88a1.413 1.413 0 0 1 1.913 1.363l-1.553 51.401a1.177 1.177 0 0 1-1.176 1.142H6.349c-.78 0-1.412-.633-1.412-1.413V26.381c0-8.89 5.008-17.023 12.948-21.025z" fill="#A570FF"/></g><g transform="translate(153.765 125.858)"><ellipse fill="#FF9600" cx="13.314" cy="18.376" rx="8.883" ry="8.889"/><path fill="#FF9600" d="M13.314 16.471h30.88v10.582h-30.88z"/><path d="M29.812 100.493h13.96v12.909c0 .936-.76 1.695-1.696 1.695H31.507a1.695 1.695 0 0 1-1.695-1.695v-12.909zM14.16 100.493h13.96v12.909c0 .936-.76 1.695-1.695 1.695h-10.57a1.695 1.695 0 0 1-1.695-1.695v-12.909z" fill="#556813"/><path d="M11.968 85.898a4.973 4.973 0 0 1 2.52 6.565l-3.185 7.157a4.969 4.969 0 0 1-6.562 2.519 4.973 4.973 0 0 1-2.52-6.565l3.185-7.157a4.969 4.969 0 0 1 6.562-2.52z" fill="#FFB5A1"/><ellipse fill="#FF9600" cx="43.137" cy="19.011" rx="8.037" ry="8.042"/><g fill="#FFB5A1"><path d="M45.397 86.55a4.973 4.973 0 0 0-2.52 6.565l2.755 6.19a4.969 4.969 0 0 0 6.562 2.52 4.973 4.973 0 0 0 2.52-6.565l-2.755-6.191a4.969 4.969 0 0 0-6.562-2.519z"/></g><ellipse fill="#FFC6B7" cx="9.93" cy="39.117" rx="5.288" ry="5.291"/><ellipse fill="#FFC6B7" cx="47.367" cy="39.117" rx="5.288" ry="5.291"/><path d="M14.739 69.73L22.074 73a2.119 2.119 0 0 1 1.074 2.796L14.72 94.74a2.119 2.119 0 0 1-2.798 1.074l-7.335-3.27a2.119 2.119 0 0 1-1.074-2.797l8.427-18.944a2.119 2.119 0 0 1 2.798-1.074zM42.687 69.561l-7.382 3.275a2.119 2.119 0 0 0-1.076 2.802l8.468 18.947a2.119 2.119 0 0 0 2.793 1.073l7.383-3.275a2.119 2.119 0 0 0 1.075-2.801l-8.467-18.948a2.119 2.119 0 0 0-2.794-1.073z" fill="#EDE1CF"/><path fill="#FFC6B7" d="M13.314 27.053h30.88v35.345h-30.88z"/><g transform="translate(13.103 69.17)"><mask fill="#fff"><use xlink:href="#A"/></mask><use fill="#EDE1CF" xlink:href="#A"/></g><g><g transform="translate(16.487 31.921)"><rect fill="#FFF" transform="matrix(-1 0 0 1 10.575 0)" x="0" y="0" width="10.575" height="14.603" rx="5.244"/><rect fill="#4B4B4B" transform="matrix(-1 0 0 1 11.986 0)" x="3.525" y="3.899" width="4.935" height="8.113" rx="2.447"/></g></g><g><g transform="matrix(-1 0 0 1 41.022 31.921)"><rect fill="#FFF" transform="matrix(-1 0 0 1 10.575 0)" x="0" y="0" width="10.575" height="14.603" rx="5.244"/><rect fill="#4B4B4B" transform="matrix(-1 0 0 1 11.986 0)" x="3.525" y="3.899" width="4.935" height="8.113" rx="2.447"/></g></g><path d="M42.237 40.461c-1.995-.598-4.19-.665-6.585-.2-2.395.467-4.705 1.353-6.93 2.66l.97 4.986 12.457-2.423.088-5.023zM14.397 40.25a25.432 25.432 0 0 1 7.164.378c2.395.465 4.512 1.16 6.35 2.081l-.968 4.987-12.458-2.423-.088-5.023z" fill="#FFC6B7"/><g><g fill="#FFF"><path d="M28.597 46.587l4.06-.79.3 1.54a2.068 2.068 0 1 1-4.06.79l-.3-1.54z"/><path d="M32.062 46.074l3.212-2.61.82 1.016c.719.89.582 2.194-.306 2.915a2.063 2.063 0 0 1-2.906-.305l-.82-1.016z"/></g><path d="M24.268 47.721c5.343-1.225 9.029-2.747 11.058-4.567" stroke="#FFC6B7" stroke-width="2.543"/></g><rect fill="#FD9477" x="25.582" y="40.598" width="6.134" height="3.598" rx="1.799"/><rect fill="#556813" x="11.199" y="111.922" width="16.921" height="3.175" rx="1.587"/><rect fill="#556813" x="29.812" y="111.922" width="16.921" height="3.175" rx="1.587"/><rect fill="#58A700" x="9.719" y="84.409" width="39.129" height="16.085" rx="4.026"/><ellipse fill="#FF9600" cx="23.751" cy="13.428" rx="13.398" ry="13.396"/><ellipse fill="#FF9600" cx="19.236" cy="24.302" rx="6.98" ry="6.984"/><path d="M12.823 66.142l2.04-.547a1.06 1.06 0 0 1 1.297.75l6.075 22.69a1.06 1.06 0 0 1-.75 1.297l-2.038.547a1.06 1.06 0 0 1-1.298-.749l-6.075-22.69a1.06 1.06 0 0 1 .749-1.297zM44.752 66.142l-2.04-.547a1.06 1.06 0 0 0-1.297.75l-6.075 22.69a1.06 1.06 0 0 0 .749 1.297l2.04.547a1.06 1.06 0 0 0 1.297-.75L45.5 67.44a1.06 1.06 0 0 0-.75-1.297z" fill="#58A700"/><rect fill="#EDE1CF" x="10.988" y="59.011" width="35.534" height="10.582" rx="1.907"/><ellipse fill="#5E7A00" opacity=".585" cx="20.083" cy="90.123" rx="2.327" ry="2.328"/><ellipse fill="#5E7A00" opacity=".585" cx="37.426" cy="90.123" rx="2.327" ry="2.328"/></g><g fill="#D83867"><path d="M120.773 149.885l.711-2.45a.235.235 0 0 1 .453 0l.685 2.363c.221.626.787.855 1.44.855.41 0 .052.131-1.077.394l.842 2.899h-4.232l.842-2.901c-1.123-.261-1.479-.392-1.068-.392.62 0 1.163-.208 1.404-.768z"/></g></g></g></g></svg>