<svg id="visual" viewBox="0 0 2300 2500" width="2300" height="2500" xmlns="http://www.w3.org/2000/svg" xmlns:xlink="http://www.w3.org/1999/xlink" version="1.1"><rect x="0" y="0" width="2300" height="2500" fill="#fff"></rect><path d="M0 638L54.8 599.2C109.7 560.3 219.3 482.7 328.8 448.7C438.3 414.7 547.7 424.3 657.2 450C766.7 475.7 876.3 517.3 985.8 498C1095.3 478.7 1204.7 398.3 1314.2 451.8C1423.7 505.3 1533.3 692.7 1642.8 716.5C1752.3 740.3 1861.7 600.7 1971.2 518.2C2080.7 435.7 2190.3 410.3 2245.2 397.7L2300 385L2300 0L2245.2 0C2190.3 0 2080.7 0 1971.2 0C1861.7 0 1752.3 0 1642.8 0C1533.3 0 1423.7 0 1314.2 0C1204.7 0 1095.3 0 985.8 0C876.3 0 766.7 0 657.2 0C547.7 0 438.3 0 328.8 0C219.3 0 109.7 0 54.8 0L0 0Z" fill="#171E2B" stroke-linecap="round" stroke-linejoin="miter"></path></svg>