<svg id="visual" viewBox="0 0 2300 2500" width="2300" height="2500" xmlns="http://www.w3.org/2000/svg" xmlns:xlink="http://www.w3.org/1999/xlink" version="1.1"><rect x="0" y="0" width="2300" height="2500" fill="#fff"></rect><path d="M0 254L54.8 238.5C109.7 223 219.3 192 328.8 178.5C438.3 165 547.7 169 657.2 179.3C766.7 189.7 876.3 206.3 985.8 198.7C1095.3 191 1204.7 159 1314.2 180.5C1423.7 202 1533.3 277 1642.8 286.5C1752.3 296 1861.7 240 1971.2 206.8C2080.7 173.7 2190.3 163.3 2245.2 158.2L2300 153L2300 0L2245.2 0C2190.3 0 2080.7 0 1971.2 0C1861.7 0 1752.3 0 1642.8 0C1533.3 0 1423.7 0 1314.2 0C1204.7 0 1095.3 0 985.8 0C876.3 0 766.7 0 657.2 0C547.7 0 438.3 0 328.8 0C219.3 0 109.7 0 54.8 0L0 0Z" fill="#171E2B" stroke-linecap="round" stroke-linejoin="miter"></path></svg>